<mxfile host="app.diagrams.net" modified="2024-01-23T09:15:08.396Z" agent="Mozilla/5.0 (Windows NT 10.0; Win64; x64) AppleWebKit/537.36 (KHTML, like Gecko) Chrome/120.0.0.0 Safari/537.36" etag="ixv7DQnpbaTQKjIaOwbU" version="22.1.21" type="github">
  <diagram name="Page-1" id="KVqnTJgvTL2Y0DMD4RkL">
    <mxGraphModel dx="1235" dy="655" grid="1" gridSize="10" guides="1" tooltips="1" connect="1" arrows="1" fold="1" page="1" pageScale="1" pageWidth="850" pageHeight="1100" math="0" shadow="0">
      <root>
        <mxCell id="0" />
        <mxCell id="1" parent="0" />
        <mxCell id="neDhDfWVvyU4JXdTm0te-19" style="edgeStyle=orthogonalEdgeStyle;rounded=0;orthogonalLoop=1;jettySize=auto;html=1;exitX=0.5;exitY=1;exitDx=0;exitDy=0;entryX=0.5;entryY=0;entryDx=0;entryDy=0;" edge="1" parent="1" source="neDhDfWVvyU4JXdTm0te-1" target="neDhDfWVvyU4JXdTm0te-7">
          <mxGeometry relative="1" as="geometry" />
        </mxCell>
        <mxCell id="neDhDfWVvyU4JXdTm0te-1" value="" style="rounded=1;whiteSpace=wrap;html=1;fillColor=#d5e8d4;strokeColor=#82b366;" vertex="1" parent="1">
          <mxGeometry x="240" y="40" width="320" height="60" as="geometry" />
        </mxCell>
        <mxCell id="neDhDfWVvyU4JXdTm0te-4" value="" style="rounded=1;whiteSpace=wrap;html=1;" vertex="1" parent="1">
          <mxGeometry x="240" y="400" width="320" height="60" as="geometry" />
        </mxCell>
        <mxCell id="neDhDfWVvyU4JXdTm0te-5" value="&lt;span style=&quot;font-size: 22px;&quot;&gt;Browser&lt;/span&gt;" style="text;html=1;strokeColor=none;fillColor=none;align=center;verticalAlign=middle;whiteSpace=wrap;rounded=0;" vertex="1" parent="1">
          <mxGeometry x="260" y="55" width="280" height="30" as="geometry" />
        </mxCell>
        <mxCell id="neDhDfWVvyU4JXdTm0te-7" value="" style="rounded=1;whiteSpace=wrap;html=1;fillColor=#dae8fc;strokeColor=#6c8ebf;" vertex="1" parent="1">
          <mxGeometry x="240" y="160" width="320" height="60" as="geometry" />
        </mxCell>
        <mxCell id="neDhDfWVvyU4JXdTm0te-9" value="" style="rounded=1;whiteSpace=wrap;html=1;fillColor=#dae8fc;strokeColor=#6c8ebf;" vertex="1" parent="1">
          <mxGeometry x="240" y="280" width="320" height="60" as="geometry" />
        </mxCell>
        <mxCell id="neDhDfWVvyU4JXdTm0te-10" value="&lt;span style=&quot;font-size: 22px;&quot;&gt;Browser&lt;/span&gt;" style="text;html=1;strokeColor=none;fillColor=none;align=center;verticalAlign=middle;whiteSpace=wrap;rounded=0;" vertex="1" parent="1">
          <mxGeometry x="260" y="415" width="280" height="30" as="geometry" />
        </mxCell>
        <mxCell id="neDhDfWVvyU4JXdTm0te-11" value="" style="rounded=1;whiteSpace=wrap;html=1;fillColor=#dae8fc;strokeColor=#6c8ebf;" vertex="1" parent="1">
          <mxGeometry x="240" y="400" width="320" height="60" as="geometry" />
        </mxCell>
        <mxCell id="neDhDfWVvyU4JXdTm0te-12" value="&lt;span style=&quot;font-size: 22px;&quot;&gt;Browser&lt;/span&gt;" style="text;html=1;strokeColor=none;fillColor=none;align=center;verticalAlign=middle;whiteSpace=wrap;rounded=0;" vertex="1" parent="1">
          <mxGeometry x="260" y="535" width="280" height="30" as="geometry" />
        </mxCell>
        <mxCell id="neDhDfWVvyU4JXdTm0te-13" value="" style="rounded=1;whiteSpace=wrap;html=1;fillColor=#dae8fc;strokeColor=#6c8ebf;" vertex="1" parent="1">
          <mxGeometry x="240" y="520" width="320" height="60" as="geometry" />
        </mxCell>
        <mxCell id="neDhDfWVvyU4JXdTm0te-8" value="&lt;span style=&quot;font-size: 22px;&quot;&gt;mongo-express-pod&lt;/span&gt;" style="text;html=1;strokeColor=none;fillColor=none;align=center;verticalAlign=middle;whiteSpace=wrap;rounded=0;" vertex="1" parent="1">
          <mxGeometry x="260" y="295" width="280" height="30" as="geometry" />
        </mxCell>
        <mxCell id="neDhDfWVvyU4JXdTm0te-14" value="&lt;span style=&quot;font-size: 22px;&quot;&gt;mongodb-service&lt;/span&gt;" style="text;html=1;strokeColor=none;fillColor=none;align=center;verticalAlign=middle;whiteSpace=wrap;rounded=0;" vertex="1" parent="1">
          <mxGeometry x="260" y="415" width="280" height="30" as="geometry" />
        </mxCell>
        <mxCell id="neDhDfWVvyU4JXdTm0te-15" value="&lt;span style=&quot;font-size: 22px;&quot;&gt;mongodb-pod&lt;/span&gt;" style="text;html=1;strokeColor=none;fillColor=none;align=center;verticalAlign=middle;whiteSpace=wrap;rounded=0;" vertex="1" parent="1">
          <mxGeometry x="260" y="535" width="280" height="30" as="geometry" />
        </mxCell>
        <mxCell id="neDhDfWVvyU4JXdTm0te-18" value="&lt;span style=&quot;font-size: 22px;&quot;&gt;mongo-express-service&lt;/span&gt;" style="text;html=1;strokeColor=none;fillColor=none;align=center;verticalAlign=middle;whiteSpace=wrap;rounded=0;" vertex="1" parent="1">
          <mxGeometry x="260" y="175" width="280" height="30" as="geometry" />
        </mxCell>
        <mxCell id="neDhDfWVvyU4JXdTm0te-23" style="edgeStyle=orthogonalEdgeStyle;rounded=0;orthogonalLoop=1;jettySize=auto;html=1;exitX=0.5;exitY=1;exitDx=0;exitDy=0;entryX=0.5;entryY=0;entryDx=0;entryDy=0;" edge="1" parent="1">
          <mxGeometry relative="1" as="geometry">
            <mxPoint x="399.5" y="220" as="sourcePoint" />
            <mxPoint x="399.5" y="280" as="targetPoint" />
          </mxGeometry>
        </mxCell>
        <mxCell id="neDhDfWVvyU4JXdTm0te-24" style="edgeStyle=orthogonalEdgeStyle;rounded=0;orthogonalLoop=1;jettySize=auto;html=1;exitX=0.5;exitY=1;exitDx=0;exitDy=0;entryX=0.5;entryY=0;entryDx=0;entryDy=0;" edge="1" parent="1">
          <mxGeometry relative="1" as="geometry">
            <mxPoint x="399.5" y="340" as="sourcePoint" />
            <mxPoint x="399.5" y="400" as="targetPoint" />
          </mxGeometry>
        </mxCell>
        <mxCell id="neDhDfWVvyU4JXdTm0te-25" style="edgeStyle=orthogonalEdgeStyle;rounded=0;orthogonalLoop=1;jettySize=auto;html=1;exitX=0.5;exitY=1;exitDx=0;exitDy=0;entryX=0.5;entryY=0;entryDx=0;entryDy=0;" edge="1" parent="1">
          <mxGeometry relative="1" as="geometry">
            <mxPoint x="399.5" y="460" as="sourcePoint" />
            <mxPoint x="399.5" y="520" as="targetPoint" />
          </mxGeometry>
        </mxCell>
      </root>
    </mxGraphModel>
  </diagram>
</mxfile>
